# xmcd CD database file
#
# Track frame offsets:
#	150
#	14400
#	33843
#	50435
#	60967
#	71740
#	85615
#	98182
#	108042
#	123529
#	136581
#
# Disc length: 2083 seconds
#
# Revision: 2
# Processed by: cddbd v1.5.1PL0 Copyright (c) Steve Scherf et al.
# Submitted via: CDex 1.51
#
DISCID=8108210b
DTITLE=Arto Lindsay - O Corpo Sutil
DYEAR=1995
DGENRE=
TTITLE0=4 Skies
TTITLE1=Child Prodigy
TTITLE2=Anima Animale
TTITLE3=Esta Seu Olhar
TTITLE4=My Mind is Going
TTITLE5=Enxugar
TTITLE6=No Meu Soutague
TTITLE7=Unbearable
TTITLE8=Nobody in Bed
TTITLE9=Astronauts
TTITLE10=Sovereign
EXTD=YEAR: 1995
EXTT0=
EXTT1=
EXTT2=
EXTT3=
EXTT4=
EXTT5=
EXTT6=
EXTT7=
EXTT8=
EXTT9=
EXTT10=
PLAYORDER=
